<svg version="1.1" id="Layer_1" xmlns="http://www.w3.org/2000/svg" xmlns:xlink="http://www.w3.org/1999/xlink" x="0px" y="0px"
	 width="20px" height="14.8px" viewBox="0 0 20 14.8" style="enable-background:new 0 0 20 14.8;" xml:space="preserve">
<style type="text/css">
	.st0{fill:#FFFFFF;}
</style>
<path class="st0" d="M19.5,13.8H10l0,0c0-2.2-0.9-4.3-2.4-5.9l7-7c0.2-0.2,0.2-0.5,0-0.7s-0.5-0.2-0.7,0L0.1,13.9
	C0,14.1,0,14.3,0,14.5c0.1,0.2,0.3,0.3,0.5,0.3h19c0.3,0,0.5-0.2,0.5-0.5S19.8,13.8,19.5,13.8z M6.9,8.6C8.3,10,9,11.8,9,13.8l0,0
	H1.7L6.9,8.6z"/>
</svg>
