<svg version="1.1" fill="#FFF" id="Layer_1" xmlns="http://www.w3.org/2000/svg" xmlns:xlink="http://www.w3.org/1999/xlink" x="0px" y="0px"
	 width="19px" height="16px" viewBox="0 0 19 16" style="enable-background:new 0 0 19 16;" xml:space="preserve">
<path class="st0" d="M1,2h17c0.6,0,1-0.4,1-1s-0.4-1-1-1H1C0.4,0,0,0.4,0,1S0.4,2,1,2z M5,8c0-0.6-0.4-1-1-1H1C0.4,7,0,7.4,0,8
	s0.4,1,1,1h3C4.6,9,5,8.6,5,8z M11,7H8C7.4,7,7,7.4,7,8s0.4,1,1,1h3c0.6,0,1-0.4,1-1S11.6,7,11,7z M18,7h-3c-0.6,0-1,0.4-1,1
	s0.4,1,1,1h3c0.6,0,1-0.4,1-1S18.6,7,18,7z M1,14c-0.6,0-1,0.4-1,1c0,0.6,0.4,1,1,1c0.6,0,1-0.4,1-1C2,14.4,1.6,14,1,14z M5,14
	c-0.6,0-1,0.4-1,1c0,0.6,0.4,1,1,1c0.6,0,1-0.4,1-1C6,14.4,5.6,14,5,14z M9,14c-0.6,0-1,0.4-1,1c0,0.6,0.4,1,1,1c0.6,0,1-0.4,1-1
	C10,14.4,9.6,14,9,14z M13,14c-0.6,0-1,0.4-1,1c0,0.6,0.4,1,1,1c0.6,0,1-0.4,1-1C14,14.4,13.6,14,13,14z M17,14c-0.6,0-1,0.4-1,1
	c0,0.6,0.4,1,1,1c0.6,0,1-0.4,1-1C18,14.4,17.6,14,17,14z"/>
</svg>
