<svg version="1.1" fill="#FFF" id="Layer_1" xmlns="http://www.w3.org/2000/svg" xmlns:xlink="http://www.w3.org/1999/xlink" x="0px" y="0px"
	 width="20px" height="12px" viewBox="0 0 20 12" style="enable-background:new 0 0 20 12;" xml:space="preserve">
<path class="st0" d="M3.2,4.9C3.3,5,3.4,5,3.5,5c0.1,0,0.2,0,0.2-0.1C3.9,4.9,4,4.7,4,4.5V3h12v1.5c0,0.2,0.1,0.4,0.3,0.4
	C16.3,5,16.4,5,16.5,5c0.1,0,0.2,0,0.3-0.1l3-2C19.9,2.8,20,2.7,20,2.5s-0.1-0.3-0.2-0.4l-3-2c-0.2-0.1-0.4-0.1-0.5,0
	C16.1,0.1,16,0.3,16,0.5V2H4V0.5c0-0.2-0.1-0.4-0.3-0.4C3.6,0,3.4,0,3.2,0.1l-3,2C0.1,2.2,0,2.3,0,2.5s0.1,0.3,0.2,0.4L3.2,4.9z
	 M19,10H1c-0.6,0-1,0.4-1,1s0.4,1,1,1h18c0.6,0,1-0.4,1-1S19.6,10,19,10z"/>
</svg>
