<svg version="1.1" id="Layer_1" xmlns="http://www.w3.org/2000/svg" xmlns:xlink="http://www.w3.org/1999/xlink" x="0px" y="0px"
	 width="12px" height="11px" viewBox="0 0 12 11" style="enable-background:new 0 0 12 11;" xml:space="preserve">
<style type="text/css">
	.st0{fill:#FFFFFF;}
</style>
<path class="st0" d="M10,0H2C0.9,0,0,0.9,0,2v5c0,1.1,0.9,2,2,2h3v1H3c-0.3,0-0.5,0.2-0.5,0.5S2.7,11,3,11h6c0.3,0,0.5-0.2,0.5-0.5
	S9.3,10,9,10H7V9h3c1.1,0,2-0.9,2-2V2C12,0.9,11.1,0,10,0z M11,7c0,0.6-0.4,1-1,1H7H5H2C1.4,8,1,7.6,1,7V2c0-0.6,0.4-1,1-1h8
	c0.6,0,1,0.4,1,1V7z"/>
</svg>
