<svg version="1.1" id="Layer_1" xmlns="http://www.w3.org/2000/svg" xmlns:xlink="http://www.w3.org/1999/xlink" x="0px" y="0px"
	 width="20px" height="5px" viewBox="0 0 20 5" style="enable-background:new 0 0 20 5;" xml:space="preserve">
<style type="text/css">
	.st0{fill:#FFFFFF;}
</style>
<path class="st0" d="M19.8,2.1l-3-2c-0.2-0.1-0.4-0.1-0.5,0c-0.2,0-0.3,0.2-0.3,0.4V2H0.5C0.2,2,0,2.2,0,2.5S0.2,3,0.5,3H16v1.5
	c0,0.2,0.1,0.4,0.3,0.4C16.3,5,16.4,5,16.5,5s0.2,0,0.3-0.1l3-2C19.9,2.8,20,2.7,20,2.5S19.9,2.2,19.8,2.1z"/>
</svg>
