<svg version="1.1" id="Layer_1" xmlns="http://www.w3.org/2000/svg" xmlns:xlink="http://www.w3.org/1999/xlink" x="0px" y="0px"
	 width="20px" height="17px" viewBox="0 0 20 17" style="enable-background:new 0 0 20 17;" xml:space="preserve">
<style type="text/css">
	.st0{fill:#FFFFFF;}
</style>
<g>
	<path class="st0" d="M4.5,4c0.2,0,0.4-0.1,0.4-0.3C5,3.6,5,3.4,4.9,3.2l-2-3c-0.2-0.3-0.6-0.3-0.8,0l-2,3C0,3.4,0,3.6,0.1,3.7
		C0.1,3.9,0.3,4,0.5,4H2v9H0.5c-0.2,0-0.4,0.1-0.4,0.3c-0.1,0.2-0.1,0.4,0,0.5l2,3C2.2,16.9,2.3,17,2.5,17s0.3-0.1,0.4-0.2l2-3
		c0.1-0.2,0.1-0.4,0-0.5c0-0.2-0.2-0.3-0.4-0.3H3V4H4.5z"/>
	<path class="st0" d="M12.5,16h-5C7.2,16,7,16.2,7,16.5S7.2,17,7.5,17h5c0.3,0,0.5-0.2,0.5-0.5S12.8,16,12.5,16z"/>
	<path class="st0" d="M19.5,12h-12C7.2,12,7,12.2,7,12.5S7.2,13,7.5,13h12c0.3,0,0.5-0.2,0.5-0.5S19.8,12,19.5,12z"/>
	<path class="st0" d="M19.5,8h-12C7.2,8,7,8.2,7,8.5S7.2,9,7.5,9h12C19.8,9,20,8.8,20,8.5S19.8,8,19.5,8z"/>
	<path class="st0" d="M7.5,5h12C19.8,5,20,4.8,20,4.5S19.8,4,19.5,4h-12C7.2,4,7,4.2,7,4.5S7.2,5,7.5,5z"/>
</g>
</svg>
