<svg version="1.1" id="Layer_1" xmlns="http://www.w3.org/2000/svg" xmlns:xlink="http://www.w3.org/1999/xlink" x="0px" y="0px"
	 width="13px" height="3px" viewBox="0 0 13 3" style="enable-background:new 0 0 13 3;" xml:space="preserve">
<style type="text/css">
	.st0{fill:#FFFFFF;}
</style>
<g>
	<path class="st0" d="M7,0H6C5.4,0,5,0.4,5,1v1c0,0.6,0.4,1,1,1h1c0.6,0,1-0.4,1-1V1C8,0.4,7.6,0,7,0z"/>
	<path class="st0" d="M12,0h-1c-0.6,0-1,0.4-1,1v1c0,0.6,0.4,1,1,1h1c0.6,0,1-0.4,1-1V1C13,0.4,12.5,0,12,0z"/>
	<path class="st0" d="M2,0H1C0.4,0,0,0.4,0,1v1c0,0.6,0.4,1,1,1h1c0.6,0,1-0.4,1-1V1C3,0.4,2.6,0,2,0z"/>
</g>
</svg>
