<svg version="1.1" id="Layer_1" xmlns="http://www.w3.org/2000/svg" xmlns:xlink="http://www.w3.org/1999/xlink" x="0px" y="0px"
	 width="3px" height="13px" viewBox="0 0 3 13" style="enable-background:new 0 0 3 13;" xml:space="preserve">
<style type="text/css">
	.st0{fill:#FFFFFF;}
</style>
<g>
	<path class="st0" d="M0,6v1c0,0.6,0.4,1,1,1h1c0.6,0,1-0.4,1-1V6c0-0.6-0.4-1-1-1H1C0.4,5,0,5.4,0,6z"/>
	<path class="st0" d="M0,1v1c0,0.6,0.4,1,1,1h1c0.6,0,1-0.4,1-1V1c0-0.6-0.4-1-1-1H1C0.4,0,0,0.4,0,1z"/>
	<path class="st0" d="M0,11v1c0,0.6,0.4,1,1,1h1c0.6,0,1-0.4,1-1v-1c0-0.6-0.4-1-1-1H1C0.4,10,0,10.4,0,11z"/>
</g>
</svg>
