<svg version="1.1" id="Layer_1" xmlns="http://www.w3.org/2000/svg" xmlns:xlink="http://www.w3.org/1999/xlink" x="0px" y="0px"
	 width="13px" height="14px" viewBox="0 0 13 14" style="enable-background:new 0 0 13 14;" xml:space="preserve">
<style type="text/css">
	.st0{fill:#FFFFFF;}
</style>
<g>
	<path class="st0" d="M5,10.3H4.5c-0.7,0-1-0.2-1-0.5c0-0.2,0.1-0.5,0.4-0.9l1.2-1.7h3.5v1.4c0,0.5,0,0.8-0.1,1.1
		C8.4,9.9,8.2,10,8,10.1s-0.5,0.1-1,0.1L6.8,11h5l0.2-0.7c-0.4,0-0.6,0-0.8-0.1s-0.3-0.2-0.4-0.4c-0.1-0.2-0.1-0.4-0.1-0.8l0.1-9
		H9.4l-6,8.3C3,8.9,2.6,9.4,2.2,9.7s-0.7,0.5-1.1,0.5L0.8,11h3.9L5,10.3z M8.7,2.2L8.6,6.4H5.7L8.7,2.2z"/>
	<rect y="13" class="st0" width="13" height="1"/>
</g>
</svg>
