<svg version="1.1" id="Layer_1" xmlns="http://www.w3.org/2000/svg" xmlns:xlink="http://www.w3.org/1999/xlink" x="0px" y="0px"
	 width="19.2px" height="11px" viewBox="0 0 19.2 11" style="enable-background:new 0 0 19.2 11;" xml:space="preserve">
<style type="text/css">
	.st0{fill:#FFFFFF;}
</style>
<g>
	<path class="st0" d="M10,9.8C9.9,9.6,9.9,9.4,9.9,9V0H8.5l-6,8.3C2.1,8.9,1.7,9.4,1.4,9.7C1,10,0.7,10.2,0.3,10.2L0,11h3.9l0.2-0.7
		H3.7c-0.7,0-1-0.2-1-0.5c0-0.2,0.1-0.5,0.4-0.9l1.2-1.7h3.6v1.4c0,0.5,0,0.8-0.1,1.1C7.6,9.9,7.5,10,7.3,10.1s-0.5,0.1-1,0.1L6,11
		h5l0.2-0.7c-0.4,0-0.6,0-0.8-0.1C10.2,10.1,10.1,10,10,9.8z M7.9,6.4h-3l3-4.4V6.4z"/>
	<path class="st0" d="M18.6,10.2c-0.2,0-0.3,0-0.4-0.1c-0.1,0-0.2-0.1-0.2-0.3s-0.1-0.3-0.1-0.5c0-0.7,0-1.3,0-1.9s0-1.2,0-1.9
		c0-0.5-0.1-0.9-0.2-1.3c-0.1-0.3-0.3-0.6-0.6-0.8c-0.3-0.2-0.6-0.3-0.9-0.4s-0.7,0-1.1,0c-0.3,0-0.6,0-1,0.1s-0.6,0.2-0.8,0.4
		c-0.3,0.2-0.5,0.4-0.6,0.6c-0.2,0.2-0.2,0.4-0.2,0.7c0,0.2,0.1,0.4,0.2,0.6s0.3,0.3,0.6,0.3s0.5-0.1,0.7-0.2c0-0.2,0.1-0.4,0.1-0.5
		c0-0.2,0-0.4-0.1-0.6c0-0.2-0.1-0.4-0.1-0.5c0.1-0.1,0.2-0.2,0.4-0.2c0.2-0.1,0.4-0.1,0.7-0.1s0.6,0.1,0.8,0.2s0.3,0.3,0.4,0.5
		s0.2,0.3,0.2,0.5s0,0.3,0,0.4V6c-0.2,0.1-0.7,0.3-1.4,0.6c-0.7,0.2-1.2,0.4-1.4,0.5S13.2,7.3,13,7.4c-0.2,0.1-0.4,0.3-0.5,0.4
		c-0.2,0.2-0.3,0.4-0.4,0.6C12,8.6,12,8.9,12,9.2c0,0.6,0.2,1,0.5,1.4C13,10.8,13.4,11,14,11c0.5,0,1-0.1,1.4-0.3s0.7-0.4,1.1-0.8
		l0,0c0.1,0.4,0.2,0.6,0.5,0.8c0.2,0.2,0.6,0.3,1,0.3c0.2,0,0.4,0,0.6-0.1s0.4-0.1,0.6-0.2v-0.5C19,10.2,18.8,10.2,18.6,10.2z
		 M16.4,9.3c-0.2,0.2-0.4,0.4-0.7,0.6s-0.6,0.3-1,0.3c-0.3,0-0.6-0.1-0.8-0.3S13.6,9.4,13.6,9c0-0.3,0.1-0.6,0.2-0.8
		c0.1-0.2,0.3-0.4,0.6-0.6C14.7,7.3,15,7.1,15.3,7s0.7-0.2,1.1-0.4V9.3z"/>
</g>
</svg>
