<svg version="1.1" id="Layer_1" xmlns="http://www.w3.org/2000/svg" xmlns:xlink="http://www.w3.org/1999/xlink" x="0px" y="0px"
	 width="10px" height="14px" viewBox="0 0 10 14" style="enable-background:new 0 0 10 14;" xml:space="preserve">
<style type="text/css">
	.st0{fill:#FFFFFF;}
</style>
<g>
	<path class="st0" d="M1.5,5H4v4c0,0.6,0.4,1,1,1s1-0.4,1-1V5h2.5C8.7,5,8.9,4.9,9,4.7s0-0.4-0.1-0.5l-3.5-4C5.2,0,4.8,0,4.6,0.2
		l-3.5,4C1,4.3,1,4.5,1,4.7S1.3,5,1.5,5z"/>
	<path class="st0" d="M9,10c-0.6,0-1,0.4-1,1v1H2v-1c0-0.6-0.4-1-1-1s-1,0.4-1,1v2c0,0.6,0.4,1,1,1h8c0.6,0,1-0.4,1-1v-2
		C10,10.5,9.6,10,9,10z"/>
</g>
</svg>
