<svg version="1.1" id="Layer_1" xmlns="http://www.w3.org/2000/svg" xmlns:xlink="http://www.w3.org/1999/xlink" x="0px" y="0px"
	 width="8px" height="8px" viewBox="0 0 8 8" style="enable-background:new 0 0 8 8;" xml:space="preserve">
<style type="text/css">
	.st0{fill:#FFFFFF;}
</style>
<path class="st0" d="M5.4,4l2.3-2.3c0.4-0.4,0.4-1,0-1.4s-1-0.4-1.4,0L4,2.6L1.7,0.3c-0.4-0.4-1-0.4-1.4,0s-0.4,1,0,1.4L2.6,4
	L0.3,6.3c-0.4,0.4-0.4,1,0,1.4C0.5,7.9,0.7,8,1,8s0.5-0.1,0.7-0.3L4,5.4l2.3,2.3C6.5,7.9,6.7,8,7,8s0.5-0.1,0.7-0.3
	c0.4-0.4,0.4-1,0-1.4L5.4,4z"/>
</svg>
